<mxfile host="app.diagrams.net" agent="Mozilla/5.0 (X11; Linux x86_64; rv:109.0) Gecko/20100101 Firefox/115.0" version="24.7.14">
  <diagram name="Page-1" id="KakwSDXUcPZYL2zCS5i3">
    <mxGraphModel dx="1419" dy="1963" grid="1" gridSize="10" guides="1" tooltips="1" connect="1" arrows="1" fold="1" page="1" pageScale="1" pageWidth="827" pageHeight="1169" math="0" shadow="0">
      <root>
        <mxCell id="0" />
        <mxCell id="1" parent="0" />
        <mxCell id="xHzU_5kZdLlZR6QwKTWA-1" value="&lt;div&gt;DTO&lt;/div&gt;" style="shape=folder;fontStyle=1;spacingTop=10;tabWidth=40;tabHeight=14;tabPosition=left;html=1;whiteSpace=wrap;fillColor=#ffe6cc;strokeColor=#d79b00;" vertex="1" parent="1">
          <mxGeometry x="90" y="-290" width="140" height="100" as="geometry" />
        </mxCell>
        <mxCell id="xHzU_5kZdLlZR6QwKTWA-2" value="Utilities" style="shape=folder;fontStyle=1;spacingTop=10;tabWidth=40;tabHeight=14;tabPosition=left;html=1;whiteSpace=wrap;fillColor=#ffe6cc;strokeColor=#d79b00;" vertex="1" parent="1">
          <mxGeometry x="90" y="-150" width="140" height="100" as="geometry" />
        </mxCell>
        <mxCell id="xHzU_5kZdLlZR6QwKTWA-3" value="Exceptions" style="shape=folder;fontStyle=1;spacingTop=10;tabWidth=40;tabHeight=14;tabPosition=left;html=1;whiteSpace=wrap;fillColor=#ffe6cc;strokeColor=#d79b00;" vertex="1" parent="1">
          <mxGeometry x="590" y="-150" width="140" height="100" as="geometry" />
        </mxCell>
        <mxCell id="xHzU_5kZdLlZR6QwKTWA-4" value="Model" style="shape=folder;fontStyle=1;spacingTop=10;tabWidth=40;tabHeight=14;tabPosition=left;html=1;whiteSpace=wrap;fillColor=#ffe6cc;strokeColor=#d79b00;" vertex="1" parent="1">
          <mxGeometry x="160" y="20" width="140" height="100" as="geometry" />
        </mxCell>
        <mxCell id="xHzU_5kZdLlZR6QwKTWA-5" value="Repository" style="shape=folder;fontStyle=1;spacingTop=10;tabWidth=40;tabHeight=14;tabPosition=left;html=1;whiteSpace=wrap;fillColor=#ffe6cc;strokeColor=#d79b00;" vertex="1" parent="1">
          <mxGeometry x="370" y="20" width="140" height="100" as="geometry" />
        </mxCell>
        <mxCell id="xHzU_5kZdLlZR6QwKTWA-6" value="&lt;div&gt;Services&lt;/div&gt;" style="shape=folder;fontStyle=1;spacingTop=10;tabWidth=40;tabHeight=14;tabPosition=left;html=1;whiteSpace=wrap;fillColor=#dae8fc;strokeColor=#6c8ebf;" vertex="1" parent="1">
          <mxGeometry x="320" y="-150" width="190" height="100" as="geometry" />
        </mxCell>
        <mxCell id="xHzU_5kZdLlZR6QwKTWA-7" value="Configurations" style="shape=folder;fontStyle=1;spacingTop=10;tabWidth=40;tabHeight=14;tabPosition=left;html=1;whiteSpace=wrap;fillColor=#ffe6cc;strokeColor=#d79b00;" vertex="1" parent="1">
          <mxGeometry x="590" y="-290" width="140" height="100" as="geometry" />
        </mxCell>
        <mxCell id="xHzU_5kZdLlZR6QwKTWA-8" value="&lt;div&gt;Controllers&lt;/div&gt;" style="shape=folder;fontStyle=1;spacingTop=10;tabWidth=40;tabHeight=14;tabPosition=left;html=1;whiteSpace=wrap;fillColor=#ffe6cc;strokeColor=#d79b00;" vertex="1" parent="1">
          <mxGeometry x="320" y="-290" width="140" height="100" as="geometry" />
        </mxCell>
        <mxCell id="xHzU_5kZdLlZR6QwKTWA-9" value="Clients" style="shape=folder;fontStyle=1;spacingTop=10;tabWidth=40;tabHeight=14;tabPosition=left;html=1;whiteSpace=wrap;fillColor=#ffe6cc;strokeColor=#d79b00;" vertex="1" parent="1">
          <mxGeometry x="580" y="-420" width="140" height="100" as="geometry" />
        </mxCell>
        <mxCell id="xHzU_5kZdLlZR6QwKTWA-10" value="" style="endArrow=open;html=1;rounded=0;endFill=0;dashed=1;entryX=1.014;entryY=0.499;entryDx=0;entryDy=0;entryPerimeter=0;" edge="1" parent="1" source="xHzU_5kZdLlZR6QwKTWA-6" target="xHzU_5kZdLlZR6QwKTWA-2">
          <mxGeometry width="50" height="50" relative="1" as="geometry">
            <mxPoint x="340" y="-130" as="sourcePoint" />
            <mxPoint x="390" y="-180" as="targetPoint" />
          </mxGeometry>
        </mxCell>
        <mxCell id="xHzU_5kZdLlZR6QwKTWA-11" value="&amp;lt;&amp;lt;import&amp;gt;&amp;gt;" style="edgeLabel;html=1;align=center;verticalAlign=middle;resizable=0;points=[];" vertex="1" connectable="0" parent="xHzU_5kZdLlZR6QwKTWA-10">
          <mxGeometry x="-0.0524" y="-1" relative="1" as="geometry">
            <mxPoint y="-9" as="offset" />
          </mxGeometry>
        </mxCell>
        <mxCell id="xHzU_5kZdLlZR6QwKTWA-12" value="" style="endArrow=open;html=1;rounded=0;endFill=0;dashed=1;edgeStyle=orthogonalEdgeStyle;" edge="1" parent="1">
          <mxGeometry width="50" height="50" relative="1" as="geometry">
            <mxPoint x="340" y="-50" as="sourcePoint" />
            <mxPoint x="300" y="50" as="targetPoint" />
            <Array as="points">
              <mxPoint x="340" y="50" />
            </Array>
          </mxGeometry>
        </mxCell>
        <mxCell id="xHzU_5kZdLlZR6QwKTWA-13" value="&amp;lt;&amp;lt;import&amp;gt;&amp;gt;" style="edgeLabel;html=1;align=center;verticalAlign=middle;resizable=0;points=[];" vertex="1" connectable="0" parent="xHzU_5kZdLlZR6QwKTWA-12">
          <mxGeometry x="-0.0524" y="-1" relative="1" as="geometry">
            <mxPoint y="-9" as="offset" />
          </mxGeometry>
        </mxCell>
        <mxCell id="xHzU_5kZdLlZR6QwKTWA-14" value="" style="endArrow=open;html=1;rounded=0;endFill=0;dashed=1;entryX=0.682;entryY=0.144;entryDx=0;entryDy=0;entryPerimeter=0;exitX=0.768;exitY=1.008;exitDx=0;exitDy=0;exitPerimeter=0;" edge="1" parent="1" source="xHzU_5kZdLlZR6QwKTWA-6" target="xHzU_5kZdLlZR6QwKTWA-5">
          <mxGeometry width="50" height="50" relative="1" as="geometry">
            <mxPoint x="340" y="-20" as="sourcePoint" />
            <mxPoint x="252" y="-20" as="targetPoint" />
          </mxGeometry>
        </mxCell>
        <mxCell id="xHzU_5kZdLlZR6QwKTWA-15" value="&amp;lt;&amp;lt;import&amp;gt;&amp;gt;" style="edgeLabel;html=1;align=center;verticalAlign=middle;resizable=0;points=[];" vertex="1" connectable="0" parent="xHzU_5kZdLlZR6QwKTWA-14">
          <mxGeometry x="-0.0524" y="-1" relative="1" as="geometry">
            <mxPoint y="-9" as="offset" />
          </mxGeometry>
        </mxCell>
        <mxCell id="xHzU_5kZdLlZR6QwKTWA-16" value="" style="endArrow=open;html=1;rounded=0;endFill=0;dashed=1;entryX=0.404;entryY=0.147;entryDx=0;entryDy=0;entryPerimeter=0;exitX=0.904;exitY=0.996;exitDx=0;exitDy=0;exitPerimeter=0;" edge="1" parent="1" source="xHzU_5kZdLlZR6QwKTWA-2" target="xHzU_5kZdLlZR6QwKTWA-4">
          <mxGeometry width="50" height="50" relative="1" as="geometry">
            <mxPoint x="159" y="-50" as="sourcePoint" />
            <mxPoint x="160" y="30" as="targetPoint" />
          </mxGeometry>
        </mxCell>
        <mxCell id="xHzU_5kZdLlZR6QwKTWA-17" value="&amp;lt;&amp;lt;import&amp;gt;&amp;gt;" style="edgeLabel;html=1;align=center;verticalAlign=middle;resizable=0;points=[];" vertex="1" connectable="0" parent="xHzU_5kZdLlZR6QwKTWA-16">
          <mxGeometry x="-0.0524" y="-1" relative="1" as="geometry">
            <mxPoint y="-9" as="offset" />
          </mxGeometry>
        </mxCell>
        <mxCell id="xHzU_5kZdLlZR6QwKTWA-18" value="" style="endArrow=open;html=1;rounded=0;endFill=0;dashed=1;entryX=1;entryY=0.7;entryDx=0;entryDy=0;entryPerimeter=0;" edge="1" parent="1" target="xHzU_5kZdLlZR6QwKTWA-4">
          <mxGeometry width="50" height="50" relative="1" as="geometry">
            <mxPoint x="378" y="90" as="sourcePoint" />
            <mxPoint x="290" y="90" as="targetPoint" />
          </mxGeometry>
        </mxCell>
        <mxCell id="xHzU_5kZdLlZR6QwKTWA-19" value="&amp;lt;&amp;lt;import&amp;gt;&amp;gt;" style="edgeLabel;html=1;align=center;verticalAlign=middle;resizable=0;points=[];" vertex="1" connectable="0" parent="xHzU_5kZdLlZR6QwKTWA-18">
          <mxGeometry x="-0.0524" y="-1" relative="1" as="geometry">
            <mxPoint x="-7" y="-9" as="offset" />
          </mxGeometry>
        </mxCell>
        <mxCell id="xHzU_5kZdLlZR6QwKTWA-20" value="" style="endArrow=open;html=1;rounded=0;endFill=0;dashed=1;entryX=0.366;entryY=0.149;entryDx=0;entryDy=0;entryPerimeter=0;" edge="1" parent="1" source="xHzU_5kZdLlZR6QwKTWA-8" target="xHzU_5kZdLlZR6QwKTWA-6">
          <mxGeometry width="50" height="50" relative="1" as="geometry">
            <mxPoint x="370" y="-50" as="sourcePoint" />
            <mxPoint x="260" y="-190" as="targetPoint" />
          </mxGeometry>
        </mxCell>
        <mxCell id="xHzU_5kZdLlZR6QwKTWA-21" value="&amp;lt;&amp;lt;import&amp;gt;&amp;gt;" style="edgeLabel;html=1;align=center;verticalAlign=middle;resizable=0;points=[];" vertex="1" connectable="0" parent="xHzU_5kZdLlZR6QwKTWA-20">
          <mxGeometry x="-0.0524" y="-1" relative="1" as="geometry">
            <mxPoint y="-9" as="offset" />
          </mxGeometry>
        </mxCell>
        <mxCell id="xHzU_5kZdLlZR6QwKTWA-24" value="" style="endArrow=open;html=1;rounded=0;endFill=0;dashed=1;entryX=0.369;entryY=0.973;entryDx=0;entryDy=0;entryPerimeter=0;exitX=0.369;exitY=0.161;exitDx=0;exitDy=0;exitPerimeter=0;" edge="1" parent="1" source="xHzU_5kZdLlZR6QwKTWA-2" target="xHzU_5kZdLlZR6QwKTWA-1">
          <mxGeometry width="50" height="50" relative="1" as="geometry">
            <mxPoint x="230" y="-170" as="sourcePoint" />
            <mxPoint x="142" y="-170" as="targetPoint" />
          </mxGeometry>
        </mxCell>
        <mxCell id="xHzU_5kZdLlZR6QwKTWA-25" value="&amp;lt;&amp;lt;import&amp;gt;&amp;gt;" style="edgeLabel;html=1;align=center;verticalAlign=middle;resizable=0;points=[];" vertex="1" connectable="0" parent="xHzU_5kZdLlZR6QwKTWA-24">
          <mxGeometry x="-0.0524" y="-1" relative="1" as="geometry">
            <mxPoint y="-9" as="offset" />
          </mxGeometry>
        </mxCell>
        <mxCell id="xHzU_5kZdLlZR6QwKTWA-27" value="" style="endArrow=open;html=1;rounded=0;endFill=0;dashed=1;entryX=1.005;entryY=0.4;entryDx=0;entryDy=0;entryPerimeter=0;" edge="1" parent="1" target="xHzU_5kZdLlZR6QwKTWA-1">
          <mxGeometry width="50" height="50" relative="1" as="geometry">
            <mxPoint x="320" y="-250" as="sourcePoint" />
            <mxPoint x="232" y="-250" as="targetPoint" />
          </mxGeometry>
        </mxCell>
        <mxCell id="xHzU_5kZdLlZR6QwKTWA-28" value="&amp;lt;&amp;lt;import&amp;gt;&amp;gt;" style="edgeLabel;html=1;align=center;verticalAlign=middle;resizable=0;points=[];" vertex="1" connectable="0" parent="xHzU_5kZdLlZR6QwKTWA-27">
          <mxGeometry x="-0.0524" y="-1" relative="1" as="geometry">
            <mxPoint y="-9" as="offset" />
          </mxGeometry>
        </mxCell>
        <mxCell id="xHzU_5kZdLlZR6QwKTWA-29" value="" style="endArrow=open;html=1;rounded=0;endFill=0;dashed=1;entryX=0;entryY=0.5;entryDx=0;entryDy=0;entryPerimeter=0;" edge="1" parent="1" target="xHzU_5kZdLlZR6QwKTWA-3">
          <mxGeometry width="50" height="50" relative="1" as="geometry">
            <mxPoint x="510" y="-100" as="sourcePoint" />
            <mxPoint x="470" y="-190.57" as="targetPoint" />
          </mxGeometry>
        </mxCell>
        <mxCell id="xHzU_5kZdLlZR6QwKTWA-30" value="&amp;lt;&amp;lt;import&amp;gt;&amp;gt;" style="edgeLabel;html=1;align=center;verticalAlign=middle;resizable=0;points=[];" vertex="1" connectable="0" parent="xHzU_5kZdLlZR6QwKTWA-29">
          <mxGeometry x="-0.0524" y="-1" relative="1" as="geometry">
            <mxPoint y="-9" as="offset" />
          </mxGeometry>
        </mxCell>
        <mxCell id="xHzU_5kZdLlZR6QwKTWA-31" value="" style="endArrow=open;html=1;rounded=0;endFill=0;dashed=1;edgeStyle=orthogonalEdgeStyle;exitX=0.946;exitY=0.127;exitDx=0;exitDy=0;exitPerimeter=0;" edge="1" parent="1" source="xHzU_5kZdLlZR6QwKTWA-6" target="xHzU_5kZdLlZR6QwKTWA-7">
          <mxGeometry width="50" height="50" relative="1" as="geometry">
            <mxPoint x="500" y="-140" as="sourcePoint" />
            <mxPoint x="460" y="-210" as="targetPoint" />
            <Array as="points">
              <mxPoint x="500" y="-240" />
            </Array>
          </mxGeometry>
        </mxCell>
        <mxCell id="xHzU_5kZdLlZR6QwKTWA-32" value="&amp;lt;&amp;lt;import&amp;gt;&amp;gt;" style="edgeLabel;html=1;align=center;verticalAlign=middle;resizable=0;points=[];" vertex="1" connectable="0" parent="xHzU_5kZdLlZR6QwKTWA-31">
          <mxGeometry x="-0.0524" y="-1" relative="1" as="geometry">
            <mxPoint x="49" y="-1" as="offset" />
          </mxGeometry>
        </mxCell>
        <mxCell id="xHzU_5kZdLlZR6QwKTWA-35" value="" style="endArrow=open;html=1;rounded=0;endFill=0;dashed=1;entryX=0;entryY=0;entryDx=140;entryDy=78.5;entryPerimeter=0;edgeStyle=orthogonalEdgeStyle;" edge="1" parent="1" target="xHzU_5kZdLlZR6QwKTWA-1">
          <mxGeometry width="50" height="50" relative="1" as="geometry">
            <mxPoint x="320" y="-130" as="sourcePoint" />
            <mxPoint x="232" y="-130" as="targetPoint" />
          </mxGeometry>
        </mxCell>
        <mxCell id="xHzU_5kZdLlZR6QwKTWA-36" value="&amp;lt;&amp;lt;import&amp;gt;&amp;gt;" style="edgeLabel;html=1;align=center;verticalAlign=middle;resizable=0;points=[];" vertex="1" connectable="0" parent="xHzU_5kZdLlZR6QwKTWA-35">
          <mxGeometry x="-0.0524" y="-1" relative="1" as="geometry">
            <mxPoint y="-9" as="offset" />
          </mxGeometry>
        </mxCell>
        <mxCell id="xHzU_5kZdLlZR6QwKTWA-41" value="" style="endArrow=open;html=1;rounded=0;endFill=0;dashed=1;edgeStyle=orthogonalEdgeStyle;" edge="1" parent="1" target="xHzU_5kZdLlZR6QwKTWA-9">
          <mxGeometry width="50" height="50" relative="1" as="geometry">
            <mxPoint x="480" y="-137" as="sourcePoint" />
            <mxPoint x="550" y="-240" as="targetPoint" />
            <Array as="points">
              <mxPoint x="480" y="-360" />
            </Array>
          </mxGeometry>
        </mxCell>
        <mxCell id="xHzU_5kZdLlZR6QwKTWA-42" value="&amp;lt;&amp;lt;import&amp;gt;&amp;gt;" style="edgeLabel;html=1;align=center;verticalAlign=middle;resizable=0;points=[];" vertex="1" connectable="0" parent="xHzU_5kZdLlZR6QwKTWA-41">
          <mxGeometry x="-0.0524" y="-1" relative="1" as="geometry">
            <mxPoint x="39" y="-80" as="offset" />
          </mxGeometry>
        </mxCell>
        <mxCell id="xHzU_5kZdLlZR6QwKTWA-45" value="Architecture Back-end" style="swimlane;whiteSpace=wrap;html=1;fillColor=#1ba1e2;strokeColor=#006EAF;fontColor=#ffffff;" vertex="1" parent="1">
          <mxGeometry x="50" y="-480" width="720" height="620" as="geometry" />
        </mxCell>
      </root>
    </mxGraphModel>
  </diagram>
</mxfile>
